<?xml version="1.0" encoding="utf-8"?>
<!-- Generator: Adobe Illustrator 16.2.1, SVG Export Plug-In . SVG Version: 6.00 Build 0)  -->
<!DOCTYPE svg PUBLIC "-//W3C//DTD SVG 1.1//EN" "http://www.w3.org/Graphics/SVG/1.1/DTD/svg11.dtd">
<svg version="1.1" id="Layer_1" xmlns="http://www.w3.org/2000/svg" xmlns:xlink="http://www.w3.org/1999/xlink" x="0px" y="0px"
	 width="16px" height="112px" viewBox="0 0 16 112" enable-background="new 0 0 16 112" xml:space="preserve">
<path fill="#FFFFFF" d="M16,8c0-4.418-3.582-8-8-8S0,3.582,0,8s3.582,8,8,8h1c0.551,0,1-0.449,1-1s-0.449-1-1-1H8
	c-3.312,0-6-2.686-6-6s2.688-6,6-6c3.314,0,6,2.686,6,6v3c0,0.551-0.449,1-1,1s-1-0.449-1-1V8c0-2.208-1.793-4-4-4
	C5.792,4,4,5.792,4,8c0,2.207,1.792,4,4,4c0.75,0,1.445-0.219,2.043-0.578C10.25,12.875,11.488,14,13,14c1.656,0,3-1.344,3-3V8z
	 M8,10c-1.106,0-2-0.895-2-2c0-1.106,0.894-2,2-2c1.105,0,2,0.894,2,2C10,9.105,9.105,10,8,10z"/>
<path fill-rule="evenodd" clip-rule="evenodd" fill="#FFFFFF" d="M15.121,16.344C14.785,16.117,14.395,16,14,16
	c-0.251,0-0.503,0.047-0.743,0.143l-5,2C8.163,18.181,8.086,18.244,8,18.294c-0.086-0.05-0.163-0.113-0.257-0.151l-5-2
	C2.503,16.047,2.251,16,2,16c-0.394,0-0.786,0.117-1.121,0.344C0.329,16.716,0,17.336,0,18v9c0,0.817,0.498,1.554,1.257,1.857l5,2
	C6.497,30.953,6.749,31,7,31c0.35,0,0.691-0.106,1-0.286C8.309,30.894,8.65,31,9,31c0.251,0,0.503-0.047,0.743-0.143l5-2
	C15.502,28.554,16,27.817,16,27v-9C16,17.336,15.671,16.716,15.121,16.344z M7,29l-5-2v-9l5,2V29z M14,27l-5,2v-9l5-2V27z"/>
<path fill-rule="evenodd" clip-rule="evenodd" fill="#FFFFFF" d="M8,48c-4.418,0-8-3.582-8-8s3.582-8,8-8c4.418,0,8,3.582,8,8
	S12.418,48,8,48z M8,34c-3.313,0-6,2.687-6,6c0,3.314,2.687,6,6,6s6-2.686,6-6C14,36.687,11.313,34,8,34z M8,45
	c-1.077,0-2.068-0.348-2.885-0.928C5.043,43.896,5,43.703,5,43.5l0,0c0.154-0.917,0.771-1.688,1.557-2.122
	C6.213,41.02,6,40.535,6,40v-1c0-1.104,0.896-2,2-2s2,0.896,2,2v1c0,0.535-0.213,1.02-0.556,1.378
	c0.784,0.435,1.401,1.205,1.556,2.122l0,0c0,0.203-0.043,0.396-0.115,0.572C10.068,44.652,9.077,45,8,45z"/>
<path fill="#FFFFFF" d="M11.707,49.293c-0.391-0.391-1.023-0.391-1.414,0l-6,6c-0.391,0.391-0.391,1.023,0,1.414l6,6
	C10.488,62.902,10.744,63,11,63s0.512-0.098,0.707-0.293c0.391-0.391,0.391-1.023,0-1.414L6.414,56l5.293-5.293
	C12.098,50.316,12.098,49.684,11.707,49.293z"/>
<path fill="#FFFFFF" d="M4.293,78.707c0.391,0.391,1.023,0.391,1.414,0l6-6c0.391-0.391,0.391-1.023,0-1.414l-6-6
	C5.512,65.098,5.256,65,5,65s-0.512,0.098-0.707,0.293c-0.391,0.391-0.391,1.023,0,1.414L9.586,72l-5.293,5.293
	C3.902,77.684,3.902,78.316,4.293,78.707z"/>
<path fill="#FFFFFF" d="M1.293,100.293c-0.391,0.391-0.391,1.023,0,1.414l6,6c0.391,0.391,1.023,0.391,1.414,0l6-6
	C14.902,101.512,15,101.256,15,101s-0.098-0.512-0.293-0.707c-0.391-0.391-1.023-0.391-1.414,0L8,105.586l-5.293-5.293
	C2.316,99.902,1.684,99.902,1.293,100.293z"/>
<path fill-rule="evenodd" clip-rule="evenodd" fill="#FFFFFF" d="M1.438,92.912l11.481-11.481c0.453-0.453,1.188-0.453,1.641,0
	c0.453,0.453,0.453,1.187,0,1.64L3.078,94.552c-0.453,0.453-1.188,0.453-1.64,0C0.985,94.099,0.985,93.365,1.438,92.912z"/>
<path fill-rule="evenodd" clip-rule="evenodd" fill="#FFFFFF" d="M3.078,81.431L14.56,92.912c0.453,0.453,0.453,1.188,0,1.64
	c-0.453,0.453-1.188,0.453-1.641,0L1.438,83.07c-0.453-0.453-0.453-1.187,0-1.64C1.891,80.978,2.625,80.978,3.078,81.431z"/>
</svg>
